<svg width="18" height="18" viewBox="0 0 18 18" fill="none" xmlns="http://www.w3.org/2000/svg">
<circle cx="9" cy="9" r="9" transform="matrix(-1 -4.37114e-08 -4.37114e-08 1 18 0)" fill="white"/>
<path d="M9.96384 13.5C10.1809 13.4995 10.3756 13.3503 10.4585 13.1229C10.5414 12.8955 10.4958 12.6337 10.343 12.4592L7.29622 8.99987L10.343 5.54054C10.4436 5.42631 10.5004 5.27135 10.5004 5.11004C10.5004 4.94821 10.4441 4.79326 10.3435 4.67902C10.1343 4.4405 9.79428 4.4405 9.58468 4.67796L6.1574 8.56931C6.05679 8.68355 6.00043 8.83851 6.00043 8.99981C6.00043 9.16111 6.05679 9.31607 6.1574 9.43031L9.58468 13.3217C9.68482 13.4359 9.82131 13.5005 9.96384 13.5Z" fill="#088B46"/>
</svg>
